<svg width="110" height="121" viewBox="0 0 110 121" fill="none" xmlns="http://www.w3.org/2000/svg">
<path d="M55 60.5C72.3594 60.5 86.4286 46.9584 86.4286 30.25C86.4286 13.5416 72.3594 0 55 0C37.6406 0 23.5714 13.5416 23.5714 30.25C23.5714 46.9584 37.6406 60.5 55 60.5ZM77 68.0625H72.8996C67.4487 70.473 61.3839 71.8438 55 71.8438C48.6161 71.8438 42.5759 70.473 37.1004 68.0625H33C14.7812 68.0625 0 82.2895 0 99.825V109.656C0 115.919 5.27902 121 11.7857 121H98.2143C104.721 121 110 115.919 110 109.656V99.825C110 82.2895 95.2188 68.0625 77 68.0625Z" fill="white"/>
</svg>
