<svg width="50" height="50" viewBox="0 0 50 50" fill="none" xmlns="http://www.w3.org/2000/svg">
<path d="M33.3333 43.75V39.5833C33.3333 37.3732 32.4554 35.2536 30.8926 33.6908C29.3297 32.128 27.2101 31.25 25 31.25H10.4167C8.20652 31.25 6.08691 32.128 4.52411 33.6908C2.9613 35.2536 2.08333 37.3732 2.08333 39.5833V43.75" stroke="white" stroke-width="2" stroke-linecap="round" stroke-linejoin="round"/>
<path d="M17.7083 22.9167C22.3107 22.9167 26.0417 19.1857 26.0417 14.5833C26.0417 9.98096 22.3107 6.25 17.7083 6.25C13.106 6.25 9.375 9.98096 9.375 14.5833C9.375 19.1857 13.106 22.9167 17.7083 22.9167Z" stroke="white" stroke-width="2" stroke-linecap="round" stroke-linejoin="round"/>
<path d="M35.4167 22.9167L39.5833 27.0833L47.9167 18.75" stroke="white" stroke-width="2" stroke-linecap="round" stroke-linejoin="round"/>
</svg>
