<svg width="52" height="51" viewBox="0 0 52 51" fill="none" xmlns="http://www.w3.org/2000/svg">
<path d="M46.4286 0H5.57143C2.49554 0 0 2.44754 0 5.46429V45.5357C0 48.5525 2.49554 51 5.57143 51H46.4286C49.5045 51 52 48.5525 52 45.5357V5.46429C52 2.44754 49.5045 0 46.4286 0ZM18.5714 38.25C18.5714 39.2563 17.7404 40.0714 16.7143 40.0714H13C11.9739 40.0714 11.1429 39.2563 11.1429 38.25V23.6786C11.1429 22.6722 11.9739 21.8571 13 21.8571H16.7143C17.7404 21.8571 18.5714 22.6722 18.5714 23.6786V38.25ZM29.7143 38.25C29.7143 39.2563 28.8832 40.0714 27.8571 40.0714H24.1429C23.1168 40.0714 22.2857 39.2563 22.2857 38.25V12.75C22.2857 11.7437 23.1168 10.9286 24.1429 10.9286H27.8571C28.8832 10.9286 29.7143 11.7437 29.7143 12.75V38.25ZM40.8571 38.25C40.8571 39.2563 40.0261 40.0714 39 40.0714H35.2857C34.2596 40.0714 33.4286 39.2563 33.4286 38.25V30.9643C33.4286 29.9579 34.2596 29.1429 35.2857 29.1429H39C40.0261 29.1429 40.8571 29.9579 40.8571 30.9643V38.25Z" fill="white"/>
</svg>
